<svg width="316" height="93" viewBox="0 0 316 93" fill="none" xmlns="http://www.w3.org/2000/svg">
<g clip-path="url(#clip0)">
<path d="M209 54C209 46.9086 207.603 39.8867 204.889 33.3351C202.176 26.7835 198.198 20.8306 193.184 15.8162C188.169 10.8019 182.216 6.82426 175.665 4.1105C169.113 1.39675 162.091 -3.09974e-07 155 0L155 54H209Z" fill="#70E796"/>
<path d="M209 54C209 46.9086 207.603 39.8867 204.889 33.3351C202.176 26.7835 198.198 20.8306 193.184 15.8162C188.169 10.8019 182.216 6.82426 175.665 4.1105C169.113 1.39675 162.091 -3.09974e-07 155 0L155 25.777C158.706 25.777 162.376 26.507 165.8 27.9254C169.225 29.3437 172.336 31.4226 174.957 34.0433C177.577 36.6641 179.656 39.7754 181.075 43.1995C182.493 46.6237 183.223 50.2937 183.223 54H209Z" fill="#F29479"/>
<circle cx="239" cy="66" r="25" fill="#70E796"/>
<path d="M264 66C264 79.8071 252.807 91 239 91C225.193 91 214 79.8071 214 66C214 52.1929 225.193 41 239 41C252.807 41 264 52.1929 264 66ZM225.934 66C225.934 73.2163 231.784 79.0662 239 79.0662C246.216 79.0662 252.066 73.2163 252.066 66C252.066 58.7837 246.216 52.9338 239 52.9338C231.784 52.9338 225.934 58.7837 225.934 66Z" fill="#F29479"/>
<path d="M289 0.180956C278.6 -2.21904 268.667 19.8476 265 31.181V61.681V92.181C295.4 92.181 311.333 66.5143 315.5 53.681V25.181C315.5 15.681 302 3.18096 289 0.180956Z" fill="#F29479"/>
<rect x="286" width="30" height="28" fill="#F29479"/>
<path d="M216 1C216 6.3842 217.254 11.7157 219.692 16.69C222.129 21.6644 225.702 26.1842 230.205 29.9914C234.709 33.7986 240.056 36.8186 245.94 38.8791C251.824 40.9395 258.131 42 264.5 42L264.5 1L216 1Z" fill="#70E796"/>
<path d="M290.5 74V41C275.3 39.4 266.833 53.6666 264.5 61V92.5C278.5 94.1 287.667 80.8333 290.5 74Z" fill="#70E796"/>
<circle cx="155" cy="66" r="8" fill="#F29479"/>
</g>
<defs>
<clipPath id="clip0">
<rect width="316" height="93" fill="white"/>
</clipPath>
</defs>
</svg>
