<svg width="60" height="60" viewBox="0 0 60 60" fill="none" xmlns="http://www.w3.org/2000/svg">
<g clip-path="url(#clip0)">
<path d="M0 0H60V60H0V0Z" fill="#70E796"/>
<path d="M47.6401 26.4C47.6401 18.6 41.3401 12.3 33.5401 12.3C27.7801 12.3 22.8 15.78 20.64 20.76C15.7201 22.98 12.3 27.9 12.3 33.6C12.3 41.4 18.6 47.7 26.4 47.7C32.16 47.7 37.14 44.22 39.3001 39.24C44.2801 37.08 47.6401 32.16 47.6401 26.4ZM35.82 35.7C35.1 35.88 34.38 35.94 33.66 35.94C28.38 35.94 24.12 31.62 24.12 26.4C24.12 25.68 24.18 25.02 24.36 24.36C25.08 24.18 25.8 24.12 26.5201 24.12C31.8001 24.12 36.06 28.38 36.06 33.66C36 34.38 35.9401 35.04 35.82 35.7ZM16.92 33.66C16.92 31.08 17.94 28.8 19.56 27.06C19.92 34.38 25.8 40.2 33.1201 40.5C31.3801 42.18 29.04 43.26 26.46 43.26C21.18 43.2 16.92 38.94 16.92 33.66ZM40.56 33C40.2 25.68 34.32 19.86 27 19.56C28.74 17.88 31.08 16.8 33.66 16.8C38.94 16.8 43.2001 21.06 43.2001 26.34C43.1401 28.98 42.12 31.32 40.56 33Z" fill="#70E796"/>
<path d="M47.16 26.4C47.16 18.96 41.1 12.9 33.66 12.9C28.02 12.9 23.22 16.32 21.18 21.24C16.38 23.28 12.96 28.08 12.96 33.66C12.96 41.1 19.02 47.16 26.46 47.16C32.1 47.16 36.9 43.74 38.94 38.82C43.68 36.78 47.16 31.98 47.16 26.4ZM26.46 43.8C20.88 43.8 16.32 39.24 16.32 33.66C16.32 30.48 17.82 27.6 20.16 25.74C20.16 25.98 20.16 26.22 20.16 26.4C20.16 33.84 26.22 39.9 33.66 39.9C33.96 39.9 34.2 39.9 34.5 39.9C32.58 42.3 29.7 43.8 26.46 43.8ZM36.3 36.18C35.46 36.42 34.56 36.54 33.66 36.54C28.08 36.54 23.52 31.98 23.52 26.4C23.52 25.5 23.64 24.66 23.88 23.88C24.72 23.64 25.62 23.52 26.52 23.52C32.1 23.52 36.66 28.08 36.66 33.66C36.6 34.56 36.48 35.4 36.3 36.18ZM39.96 34.32C39.96 34.08 39.96 33.84 39.96 33.66C39.96 26.22 33.9 20.16 26.46 20.16C26.16 20.16 25.92 20.16 25.62 20.16C27.48 17.76 30.36 16.26 33.6 16.26C39.18 16.26 43.74 20.82 43.74 26.4C43.74 29.64 42.24 32.46 39.96 34.32Z" fill="black"/>
</g>
<defs>
<clipPath id="clip0">
<rect width="60" height="60" rx="30" fill="white"/>
</clipPath>
</defs>
</svg>
