<svg width="60" height="60" viewBox="0 0 60 60" fill="none" xmlns="http://www.w3.org/2000/svg">
<path d="M30 60C46.5686 60 60 46.5686 60 30C60 13.4314 46.5686 0 30 0C13.4314 0 0 13.4314 0 30C0 46.5686 13.4314 60 30 60Z" fill="#70E796"/>
<path d="M28.74 45.7199C34.62 45.7199 39.6 41.9399 41.46 36.7199H37.8C36.18 40.0799 32.7 42.3599 28.74 42.3599C23.16 42.3599 18.6 37.7999 18.6 32.2199C18.6 28.2599 20.88 24.7799 24.24 23.1599V19.4999C19.02 21.3599 15.24 26.3399 15.24 32.2199C15.24 39.6599 21.3 45.7199 28.74 45.7199ZM36.48 29.2199V24.2999C38.16 24.7199 39.48 25.2599 39.48 26.6999C39.48 28.0199 38.34 28.9799 36.48 29.2199ZM34.2 33.7799H36.6V31.9199C40.14 31.4999 42.42 29.4599 42.42 26.6999C42.42 22.8599 39.36 22.0199 36.48 21.4799V16.3799C37.86 16.4999 39.36 16.9199 40.74 17.5799V14.5799C39.42 14.0999 37.98 13.7999 36.6 13.7399V11.9399H34.2V13.7399C30.54 14.1599 28.44 16.1999 28.44 18.7799C28.44 22.6799 31.44 23.5799 34.32 24.1199V29.2199C32.58 28.9799 30.72 28.2599 28.56 27.1199V30.2999C30.42 31.1999 32.34 31.7999 34.2 31.9199V33.7799ZM34.32 21.2399C32.64 20.8799 31.38 20.2799 31.38 18.7799C31.38 17.3999 32.46 16.5599 34.32 16.3799V21.2399Z" fill="black"/>
</svg>
